<svg xmlns="http://www.w3.org/2000/svg" viewBox="0 0 890 240" fill="none">
  <style>
    @keyframes panelIn {
      0% { opacity: 0; transform: translateY(10px); }
      100% { opacity: 1; transform: translateY(0); }
    }
    @keyframes drawLine {
      from { stroke-dashoffset: 100; }
      to { stroke-dashoffset: 0; }
    }
    @keyframes pulseDot {
      0%, 100% { transform: scale(1); opacity: 0.9; }
      50% { transform: scale(1.16); opacity: 1; }
    }
    @keyframes launchGlow {
      0%, 100% { opacity: 0.05; }
      50% { opacity: 0.14; }
    }
    @keyframes gridFade {
      0%, 100% { opacity: 0.22; }
      50% { opacity: 0.36; }
    }
    .panel { animation: panelIn 0.55s ease-out both; }
    .grid { animation: gridFade 4s ease-in-out infinite; }
    .total-line {
      stroke-dasharray: 100;
      stroke-dashoffset: 100;
      animation: drawLine 1.5s ease-out 0.05s forwards;
    }
    .v7-line {
      stroke-dasharray: 100;
      stroke-dashoffset: 100;
      animation: drawLine 1.5s ease-out 0.22s forwards;
    }
    .v6-line {
      stroke-dasharray: 100;
      stroke-dashoffset: 100;
      animation: drawLine 1.5s ease-out 0.38s forwards;
    }
    .launch-band { animation: launchGlow 3.2s ease-in-out infinite; }
    .dot-total { animation: pulseDot 2.4s ease-in-out infinite; transform-origin: 854.0px 188.5px; }
    .dot-v7 { animation: pulseDot 2.4s ease-in-out 0.4s infinite; transform-origin: 854.0px 189.9px; }
    .dot-v6 { animation: pulseDot 2.4s ease-in-out 0.8s infinite; transform-origin: 854.0px 193.2px; }
  </style>

  <rect class="panel" width="890" height="240" rx="16" fill="#f6f8fa" stroke="#d1d9e0" stroke-width="1"/>
  <rect x="1" y="1" width="888" height="238" rx="15" fill="none" stroke="#d1d9e0" stroke-opacity="0.35"/>

  <rect x="24" y="22" width="220" height="196" rx="14" fill="#ffffff" stroke="#d1d9e0" stroke-opacity="0.6"/>
  <text x="42" y="54" font-family="system-ui, sans-serif" font-size="12" font-weight="700" fill="#656d76">PYPI MOMENTUM</text>
  <text x="42" y="84" font-family="system-ui, sans-serif" font-size="34" font-weight="800" fill="#1f2328">37.9k</text>
  <text x="42" y="106" font-family="system-ui, sans-serif" font-size="12" fill="#656d76">legacy installs shown from Mar 29 to May 4</text>
  <text x="42" y="130" font-family="system-ui, sans-serif" font-size="12" fill="#656d76">Daily Pepy curve for the pre-rename package,</text>
  <text x="42" y="147" font-family="system-ui, sans-serif" font-size="12" fill="#656d76">with the 6.x → 7.x handoff highlighted.</text>

  <rect x="42" y="166" width="78" height="26" rx="13" fill="#F59E0B" opacity="0.12" stroke="#F59E0B" stroke-width="0.8"/>
  <text x="81" y="183" text-anchor="middle" font-family="system-ui, sans-serif" font-size="12" font-weight="700" fill="#F59E0B">4.4k</text>
  <text x="81" y="201" text-anchor="middle" font-family="system-ui, sans-serif" font-size="10" fill="#656d76">7.x</text>

  <rect x="132" y="166" width="78" height="26" rx="13" fill="#10B981" opacity="0.12" stroke="#10B981" stroke-width="0.8"/>
  <text x="171" y="183" text-anchor="middle" font-family="system-ui, sans-serif" font-size="12" font-weight="700" fill="#10B981">7.2k</text>
  <text x="171" y="201" text-anchor="middle" font-family="system-ui, sans-serif" font-size="10" fill="#656d76">6.x</text>

  <text x="42" y="217" font-family="system-ui, sans-serif" font-size="11" fill="#656d76">Peak 7.x day: 813 installs on 04/22</text>

  <text x="280" y="30" font-family="system-ui, sans-serif" font-size="12" font-weight="700" fill="#656d76">INTERACTIVE PEPY SPLIT</text>
  <text x="280" y="214" font-family="system-ui, sans-serif" font-size="11" fill="#656d76">Total, 7.x, and 6.x daily downloads on the legacy package before the rename to llm-routing.</text>

  <rect x="280" y="22" width="56" height="18" rx="9" fill="#4F46E5" opacity="0.12"/>
  <text x="308" y="34" text-anchor="middle" font-family="system-ui, sans-serif" font-size="10" font-weight="700" fill="#4F46E5">Total</text>
  <rect x="342" y="22" width="46" height="18" rx="9" fill="#F59E0B" opacity="0.12"/>
  <text x="365" y="34" text-anchor="middle" font-family="system-ui, sans-serif" font-size="10" font-weight="700" fill="#F59E0B">7.x</text>
  <rect x="394" y="22" width="46" height="18" rx="9" fill="#10B981" opacity="0.12"/>
  <text x="417" y="34" text-anchor="middle" font-family="system-ui, sans-serif" font-size="10" font-weight="700" fill="#10B981">6.x</text>

  <rect class="launch-band" x="635.7" y="48.0" width="22" height="146.0" rx="11" fill="#8B5CF6"/>
  <text x="662.7" y="66.0" font-family="system-ui, sans-serif" font-size="10" font-weight="700" fill="#8B5CF6">7.x lands</text>

  <line class="grid" x1="280.0" y1="194.0" x2="854.0" y2="194.0" stroke="#d1d9e0" stroke-width="1" opacity="0.25"/><text x="270.0" y="198.0" text-anchor="end" font-family="system-ui, sans-serif" font-size="10" fill="#656d76">0</text><line class="grid" x1="280.0" y1="157.5" x2="854.0" y2="157.5" stroke="#d1d9e0" stroke-width="1" opacity="0.25"/><text x="270.0" y="161.5" text-anchor="end" font-family="system-ui, sans-serif" font-size="10" fill="#656d76">916</text><line class="grid" x1="280.0" y1="121.0" x2="854.0" y2="121.0" stroke="#d1d9e0" stroke-width="1" opacity="0.25"/><text x="270.0" y="125.0" text-anchor="end" font-family="system-ui, sans-serif" font-size="10" fill="#656d76">1.8k</text><line class="grid" x1="280.0" y1="84.5" x2="854.0" y2="84.5" stroke="#d1d9e0" stroke-width="1" opacity="0.25"/><text x="270.0" y="88.5" text-anchor="end" font-family="system-ui, sans-serif" font-size="10" fill="#656d76">2.7k</text><line class="grid" x1="280.0" y1="48.0" x2="854.0" y2="48.0" stroke="#d1d9e0" stroke-width="1" opacity="0.25"/><text x="270.0" y="52.0" text-anchor="end" font-family="system-ui, sans-serif" font-size="10" fill="#656d76">3.7k</text>

  <path d="M 280.0 194.0 280.0 184.9 L 295.9 166.5 L 311.9 188.3 L 327.8 192.6 L 343.8 192.2 L 359.7 192.4 L 375.7 193.6 L 391.6 104.4 L 407.6 58.8 L 423.5 112.1 L 439.4 139.5 L 455.4 149.6 L 471.3 137.3 L 487.3 178.9 L 503.2 161.7 L 519.2 130.8 L 535.1 144.0 L 551.1 104.1 L 567.0 125.7 L 582.9 148.9 L 598.9 163.0 L 614.8 150.0 L 630.8 100.1 L 646.7 94.2 L 662.7 135.9 L 678.6 156.9 L 694.6 162.4 L 710.5 174.8 L 726.4 167.6 L 742.4 156.7 L 758.3 155.5 L 774.3 171.8 L 790.2 188.1 L 806.2 162.0 L 822.1 169.6 L 838.1 166.3 L 854.0 188.5 L 854.0 194.0 Z" fill="#4F46E5" opacity="0.08"/>
  <path class="total-line" pathLength="100" d="M 280.0 184.9 L 295.9 166.5 L 311.9 188.3 L 327.8 192.6 L 343.8 192.2 L 359.7 192.4 L 375.7 193.6 L 391.6 104.4 L 407.6 58.8 L 423.5 112.1 L 439.4 139.5 L 455.4 149.6 L 471.3 137.3 L 487.3 178.9 L 503.2 161.7 L 519.2 130.8 L 535.1 144.0 L 551.1 104.1 L 567.0 125.7 L 582.9 148.9 L 598.9 163.0 L 614.8 150.0 L 630.8 100.1 L 646.7 94.2 L 662.7 135.9 L 678.6 156.9 L 694.6 162.4 L 710.5 174.8 L 726.4 167.6 L 742.4 156.7 L 758.3 155.5 L 774.3 171.8 L 790.2 188.1 L 806.2 162.0 L 822.1 169.6 L 838.1 166.3 L 854.0 188.5" fill="none" stroke="#4F46E5" stroke-width="3" stroke-linecap="round" stroke-linejoin="round"/>
  <path class="v7-line" pathLength="100" d="M 280.0 194.0 L 295.9 194.0 L 311.9 194.0 L 327.8 194.0 L 343.8 194.0 L 359.7 194.0 L 375.7 194.0 L 391.6 194.0 L 407.6 194.0 L 423.5 194.0 L 439.4 194.0 L 455.4 194.0 L 471.3 194.0 L 487.3 194.0 L 503.2 194.0 L 519.2 194.0 L 535.1 194.0 L 551.1 194.0 L 567.0 194.0 L 582.9 194.0 L 598.9 194.0 L 614.8 194.0 L 630.8 194.0 L 646.7 175.4 L 662.7 161.6 L 678.6 177.6 L 694.6 172.0 L 710.5 190.3 L 726.4 173.6 L 742.4 170.3 L 758.3 181.0 L 774.3 189.0 L 790.2 192.4 L 806.2 187.8 L 822.1 190.2 L 838.1 188.8 L 854.0 189.9" fill="none" stroke="#F59E0B" stroke-width="2.4" stroke-linecap="round" stroke-linejoin="round"/>
  <path class="v6-line" pathLength="100" d="M 280.0 194.0 L 295.9 194.0 L 311.9 194.0 L 327.8 194.0 L 343.8 194.0 L 359.7 194.0 L 375.7 194.0 L 391.6 194.0 L 407.6 194.0 L 423.5 194.0 L 439.4 194.0 L 455.4 194.0 L 471.3 194.0 L 487.3 194.0 L 503.2 194.0 L 519.2 194.0 L 535.1 194.0 L 551.1 194.0 L 567.0 186.0 L 582.9 166.8 L 598.9 188.5 L 614.8 154.7 L 630.8 119.5 L 646.7 127.1 L 662.7 181.9 L 678.6 188.5 L 694.6 188.8 L 710.5 190.2 L 726.4 190.9 L 742.4 188.1 L 758.3 187.6 L 774.3 190.7 L 790.2 193.2 L 806.2 186.1 L 822.1 189.5 L 838.1 187.1 L 854.0 193.2" fill="none" stroke="#10B981" stroke-width="2.4" stroke-linecap="round" stroke-linejoin="round"/>

  <circle class="dot-total" cx="854.0" cy="188.5" r="5" fill="#4F46E5"/>
  <circle class="dot-v7" cx="854.0" cy="189.9" r="4.5" fill="#F59E0B"/>
  <circle class="dot-v6" cx="854.0" cy="193.2" r="4.5" fill="#10B981"/>

  <text x="280.0" y="216.0" font-family="system-ui, sans-serif" font-size="10" fill="#656d76">Mar 29</text>
  <text x="646.7" y="216.0" text-anchor="middle" font-family="system-ui, sans-serif" font-size="10" fill="#656d76">Apr 21</text>
  <text x="854.0" y="216.0" text-anchor="end" font-family="system-ui, sans-serif" font-size="10" fill="#656d76">May 4</text>
</svg>